# xmcd
#
# Track frame offsets:
#	150
#	16845
#	39378
#	57145
#	76752
#	89473
#	110123
#	125034
#	139244
#	154252
#
# Disc length: 2467 seconds
#
# Revision: 0
# Processed by: cddbd v1.5.2PL0 Copyright (c) Steve Scherf et al.
# Submitted via: dBpowerAMP V4.0
#
DISCID=7f09a10a
DTITLE=Kane - Kane
DYEAR=2001
DGENRE=Country
TTITLE0=Sweet Carolina Rain
TTITLE1=Rattlesnake Smile
TTITLE2=Crazy In Love
TTITLE3=Don't Come Home
TTITLE4=The Chase
TTITLE5=Spirit Boy
TTITLE6=One More Shot
TTITLE7=America High
TTITLE8=In The Darkness
TTITLE9=Oklahoma State of Mind
EXTD=
EXTT0=
EXTT1=
EXTT2=
EXTT3=
EXTT4=
EXTT5=
EXTT6=
EXTT7=
EXTT8=
EXTT9=
PLAYORDER=
